<?xml version="1.0" encoding="UTF-8"?>
<svg width="32px" height="32px" viewBox="0 0 32 32" version="1.1" xmlns="http://www.w3.org/2000/svg" xmlns:xlink="http://www.w3.org/1999/xlink">
    <title>Favicon</title>
    <defs>
        <path d="M5.33135835,6.4998283 C5.76294849,6.4998283 6.12260693,6.63211652 6.41033369,6.89669297 C6.69806045,7.16126941 6.78985934,7.47545395 6.75389349,7.83924656 L6.75339959,11.0718283 L9.60904567,11.0710864 C9.7852918,11.0637712 9.96305178,11.0642075 10.1419245,11.0726849 L10.8495747,11.0720814 C11.3520713,11.0720814 11.7446468,11.3346607 12.0273011,11.8598191 C12.0901132,12.084887 12.1215193,12.3099549 12.1215193,12.5350228 C12.1215193,12.9851586 11.9958951,13.3602718 11.7446468,13.6603623 C11.4933985,13.9604529 11.1950412,14.0917425 10.8495747,14.0542312 L6.75339959,14.0538283 L6.75622416,16.9069675 L6.75638547,16.9324589 C6.71306553,18.4711882 7.81732123,19.8339789 9.38906352,20.0829184 C11.0799986,20.3507362 12.6676054,19.2195364 12.960081,17.5496752 L12.9685462,17.4989093 L12.9685859,17.4939284 C12.9605793,17.3863139 12.963048,17.2677133 12.9655168,17.1549208 L12.9679855,16.9933059 C12.9679855,15.8428905 13.2969479,14.7688413 13.8664777,13.8590159 C14.4963133,12.8223999 15.4251086,12.0069481 16.5137446,11.5144461 C16.5136115,11.5136003 16.5134049,11.5132171 16.5131981,11.5128335 C17.5325204,11.0537775 18.6899315,10.8758126 19.8733378,11.0632458 C20.1235888,11.1028816 20.3676849,11.1576984 20.6048467,11.2266167 C21.5384105,11.3427172 22.8409032,11.1378713 23.5216826,10.5235333 L23.5590112,10.4892897 C24.1213954,9.96485796 25.0060495,9.99950184 25.5349414,10.566669 C26.0638334,11.1338362 26.0366825,12.0187519 25.4742983,12.5431837 C24.9853462,12.9991389 24.438393,13.3544733 23.8586996,13.6101762 C23.8701527,13.6240464 23.8811552,13.6405424 23.8920764,13.6570936 C24.54323,14.608064 24.9234201,15.7565557 24.9234201,16.9933059 C24.9234201,20.274638 22.2471049,22.9346833 18.9457028,22.9346833 C18.6880256,22.9346833 18.4340441,22.9187686 18.1847522,22.887861 C18.1247525,22.8867296 18.0640691,22.8811464 18.0030958,22.8714892 C17.5179974,22.7946571 17.0560265,22.6607814 16.6228594,22.4777253 C15.7630717,22.1238039 15.0047819,21.5787277 14.4038458,20.8947144 L14.3227545,20.9888635 C13.0150231,22.431072 11.0215016,23.2059652 8.94647485,22.8773133 C6.01903416,22.4136522 3.92461417,19.9111847 3.89846102,17.0592259 L3.89739959,17.0590149 L3.898346,16.963209 C3.90134298,16.6598237 3.91145778,15.6358983 3.92869041,13.8914328 L3.92869041,11.2622043 L3.89739959,7.83924656 C3.89739959,7.31009367 4.18045133,6.89669297 4.68397315,6.59904446 C4.89976822,6.53290035 5.11556328,6.4998283 5.33135835,6.4998283 Z M18.9457028,13.8811558 C17.6349848,13.8811558 16.5123668,14.6816115 16.0456913,15.8175244 C15.9622817,16.0266418 15.9011166,16.2485898 15.8643825,16.4805199 C15.5965647,18.171455 16.7277644,19.7590619 18.3976257,20.0515374 L18.4483915,20.0600027 L18.524497,20.0775394 C18.6622614,20.0959498 18.8028652,20.105456 18.9457028,20.105456 C20.4303024,20.105456 21.6735846,19.0785339 21.9957197,17.7003864 C21.9933625,17.6306447 21.9974646,17.5600311 22.0069776,17.488944 L22.0120512,17.454215 C22.1311824,16.7020502 21.973495,15.9703307 21.6147135,15.3639532 C21.062872,14.4742836 20.0739773,13.8811558 18.9457028,13.8811558 Z" id="path-1"></path>
        <filter x="-2.3%" y="-3.0%" width="104.4%" height="106.1%" filterUnits="objectBoundingBox" id="filter-3">
            <feGaussianBlur stdDeviation="0.5" in="SourceAlpha" result="shadowBlurInner1"></feGaussianBlur>
            <feOffset dx="0" dy="0" in="shadowBlurInner1" result="shadowOffsetInner1"></feOffset>
            <feComposite in="shadowOffsetInner1" in2="SourceAlpha" operator="arithmetic" k2="-1" k3="1" result="shadowInnerInner1"></feComposite>
            <feColorMatrix values="0 0 0 0 0   0 0 0 0 0   0 0 0 0 0  0 0 0 0.2 0" type="matrix" in="shadowInnerInner1"></feColorMatrix>
        </filter>
    </defs>
    <g id="Favicon" stroke="none" stroke-width="1" fill="none" fill-rule="evenodd">
        <rect id="Rectangle" fill="#109C90" x="0" y="0" width="32" height="32" rx="4"></rect>
        <g id="Group" transform="translate(-4.000000, -4.000000)">
            <g id="logo/tonto_logo_white" transform="translate(5.333333, 5.274725)">
                <mask id="mask-2" fill="white">
                    <use xlink:href="#path-1"></use>
                </mask>
                <g id="Combined-Shape-Copy" fill-rule="nonzero">
                    <use fill="#FFFFFF" xlink:href="#path-1"></use>
                    <use fill="black" fill-opacity="1" filter="url(#filter-3)" xlink:href="#path-1"></use>
                </g>
            </g>
        </g>
    </g>
</svg>